# xmcd
#
# Track frame offsets:
#	150
#	27832
#	44485
#	58667
#	77085
#	91300
#	105112
#	126997
#	149030
#	163882
#	199942
#	224962
#	245987
#	270897
#	292697
#	313157
#
# Disc length: 4467 seconds
#
# Revision: 0
# Processed by: cddbd v1.4PL0 Copyright (c) Steve Scherf et al.
# Submitted via: dBpowerAMP V4.0
#
DISCID=f5117110
DTITLE=Various Artist - American Folk Blues Festival '70
DYEAR=1980
DGENRE=Blues
TTITLE0=Introduction
TTITLE1=Hard Hearted Woman
TTITLE2=That Aint' It
TTITLE3=Magie Lee
TTITLE4=World Boogie
TTITLE5=Old Lady
TTITLE6=Going To Louisiana
TTITLE7=Blues Before Sunrise
TTITLE8=Hootin' The Blues
TTITLE9=Back Water Blues
TTITLE10=Walk On
TTITLE11=When I Was Drinking
TTITLE12=Juanita
TTITLE13=After Hours
TTITLE14=Crazy For My Baby
TTITLE15=Sittin' And Cryin' The Blues
EXTD=
EXTT0=
EXTT1=
EXTT2=
EXTT3=
EXTT4=
EXTT5=
EXTT6=
EXTT7=
EXTT8=
EXTT9=
EXTT10=
EXTT11=
EXTT12=
EXTT13=
EXTT14=
EXTT15=
PLAYORDER=
